/* XPM */
static char *MA__[] = {
/* columns rows colors chars-per-pixel */
"32 32 6 1 ",
"  c #FD0507",
". c #FC0607",
"X c #FC0508",
"o c #FD0508",
"O c #FD0608",
"+ c None",
/* pixels */
"++++++++++++++++++++++++++++++++",
"++++++++++++++++++++++++++++++++",
"++++++++++++++++++++++++++++++++",
"+++++++++++++++++++++++oo.++++++",
"+++++++++++++++++++++oo.OO.+++++",
"+++++++++++++++++++++o++++o+++++",
"++++++++++++++++++++oo++++.O++++",
"++++++++++++++++++++oX++++oo++++",
"++++++++++++++++++++oo++++OO++++",
"++++++++++++++++++++.o++++OO++++",
"++++++++++++++++++++oo++++Oo++++",
"++++++++++++++++++++..++++o.++++",
"+++++++++++++++++++++o++++.o++++",
"+++++++++++++++++++++..++oo+++++",
"++++++++++++++++++++++.oO.++++++",
"++++++++++++++++++++++++++++++++",
"++++++++++++++++++++++++++++++++",
"++++++++++++++++++++++++++++++++",
"++++++++++++++++++++++++++++++++",
"++++++++++++++++++++++++++++++++",
"++++++++++++++++++++++++++++++++",
"++++++++++++++++++++++++++++++++",
"++++++++++++++++++++++++++++++++",
"++++++++++++++++++++++++++++++++",
"++++++++++++++++++++++++++++++++",
"++++++++++++++++++++++++++++++++",
"++++++++++++++++++++++++++++++++",
"++++++++++++++++++++++++++++++++",
"++++++++++++++++++++++++++++++++",
"++++++++++++++++++++++++++++++++",
"++++++++++++++++++++++++++++++++",
"++++++++++++++++++++++++++++++++"
};
