/* XPM */
static char *MQ__[] = {
/* columns rows colors chars-per-pixel */
"32 32 4 1 ",
"  c #FC0508",
". c #FD0508",
"X c #FD0608",
"o c None",
/* pixels */
"oooooooooooooooooooooooooooooooo",
"oooooooooooooooooooooooooooooooo",
"oooooooooooooooooooooooooooooooo",
"oooooooooooooooooooooooXXooooooo",
"oooooooooooooooooooooXXXXooooooo",
"oooooooooooooooooooooooXXooooooo",
"oooooooooooooooooooooooXXooooooo",
"oooooooooooooooooooooooXXooooooo",
"oooooooooooooooooooooooXXooooooo",
"oooooooooooooooooooooooXXooooooo",
"oooooooooooooooooooooooXXooooooo",
"oooooooooooooooooooooooXXooooooo",
"oooooooooooooooooooooooXXooooooo",
"oooooooooooooooooooooooXXooooooo",
"oooooooooooooooooooooXXXXXXXoooo",
"oooooooooooooooooooooooooooooooo",
"oooooooooooooooooooooooooooooooo",
"oooooooooooooooooooooooooooooooo",
"oooooooooooooooooooooooooooooooo",
"oooooooooooooooooooooooooooooooo",
"oooooooooooooooooooooooooooooooo",
"oooooooooooooooooooooooooooooooo",
"oooooooooooooooooooooooooooooooo",
"oooooooooooooooooooooooooooooooo",
"oooooooooooooooooooooooooooooooo",
"oooooooooooooooooooooooooooooooo",
"oooooooooooooooooooooooooooooooo",
"oooooooooooooooooooooooooooooooo",
"oooooooooooooooooooooooooooooooo",
"oooooooooooooooooooooooooooooooo",
"oooooooooooooooooooooooooooooooo",
"oooooooooooooooooooooooooooooooo"
};
