/* XPM */
static char *Mg__[] = {
/* columns rows colors chars-per-pixel */
"32 32 5 1 ",
"  c #FD0507",
". c #FC0508",
"X c #FD0508",
"o c #FD0608",
"O c None",
/* pixels */
"OOOOOOOOOOOOOOOOOOOOOOOOOOOOOOOO",
"OOOOOOOOOOOOOOOOOOOOOOOOOOOOOOOO",
"OOOOOOOOOOOOOOOOOOOOOOOOOOOOOOOO",
"OOOOOOOOOOOOOOOOOOOOOO...OOOOOOO",
"OOOOOOOOOOOOOOOOOOOO. .. o OOOOO",
"OOOOOOOOOOOOOOOOOOOOOOOOOOoOOOOO",
"OOOOOOOOOOOOOOOOOOOOOOOOOO.oOOOO",
"OOOOOOOOOOOOOOOOOOOOOOOOOO.OOOOO",
"OOOOOOOOOOOOOOOOOOOOOOOOO oOOOOO",
"OOOOOOOOOOOOOOOOOOOOOOOO. OOOOOO",
"OOOOOOOOOOOOOOOOOOOOOOO. OOOOOOO",
"OOOOOOOOOOOOOOOOOOOOOO.oOOOOOOOO",
"OOOOOOOOOOOOOOOOOOOOO.oOOOOOOOOO",
"OOOOOOOOOOOOOOOOOOOO o.OOOOOOOOO",
"OOOOOOOOOOOOOOOOOOOO.oooooo.OOOO",
"OOOOOOOOOOOOOOOOOOOOOOOOOOOOOOOO",
"OOOOOOOOOOOOOOOOOOOOOOOOOOOOOOOO",
"OOOOOOOOOOOOOOOOOOOOOOOOOOOOOOOO",
"OOOOOOOOOOOOOOOOOOOOOOOOOOOOOOOO",
"OOOOOOOOOOOOOOOOOOOOOOOOOOOOOOOO",
"OOOOOOOOOOOOOOOOOOOOOOOOOOOOOOOO",
"OOOOOOOOOOOOOOOOOOOOOOOOOOOOOOOO",
"OOOOOOOOOOOOOOOOOOOOOOOOOOOOOOOO",
"OOOOOOOOOOOOOOOOOOOOOOOOOOOOOOOO",
"OOOOOOOOOOOOOOOOOOOOOOOOOOOOOOOO",
"OOOOOOOOOOOOOOOOOOOOOOOOOOOOOOOO",
"OOOOOOOOOOOOOOOOOOOOOOOOOOOOOOOO",
"OOOOOOOOOOOOOOOOOOOOOOOOOOOOOOOO",
"OOOOOOOOOOOOOOOOOOOOOOOOOOOOOOOO",
"OOOOOOOOOOOOOOOOOOOOOOOOOOOOOOOO",
"OOOOOOOOOOOOOOOOOOOOOOOOOOOOOOOO",
"OOOOOOOOOOOOOOOOOOOOOOOOOOOOOOOO"
};
