/* XPM */
static char *Mw__[] = {
/* columns rows colors chars-per-pixel */
"32 32 6 1 ",
"  c #FD0507",
". c #FC0607",
"X c #FC0508",
"o c #FD0508",
"O c #FD0608",
"+ c None",
/* pixels */
"++++++++++++++++++++++++++++++++",
"++++++++++++++++++++++++++++++++",
"++++++++++++++++++++++++++++++++",
"+++++++++++++++++++++ OOOO++++++",
"+++++++++++++++++++++  O   +++++",
"++++++++++++++++++++++++++OO++++",
"++++++++++++++++++++++++++OO++++",
"++++++++++++++++++++++++++O+++++",
"++++++++++++++++++++++OOO ++++++",
"+++++++++++++++++++++++OOOO+++++",
"++++++++++++++++++++++++++O.++++",
"++++++++++++++++++++++++++ O++++",
"++++++++++++++++++++++++++ O++++",
"++++++++++++++++++++O++++.O+++++",
"++++++++++++++++++++ OOOOO++++++",
"++++++++++++++++++++++++++++++++",
"++++++++++++++++++++++++++++++++",
"++++++++++++++++++++++++++++++++",
"++++++++++++++++++++++++++++++++",
"++++++++++++++++++++++++++++++++",
"++++++++++++++++++++++++++++++++",
"++++++++++++++++++++++++++++++++",
"++++++++++++++++++++++++++++++++",
"++++++++++++++++++++++++++++++++",
"++++++++++++++++++++++++++++++++",
"++++++++++++++++++++++++++++++++",
"++++++++++++++++++++++++++++++++",
"++++++++++++++++++++++++++++++++",
"++++++++++++++++++++++++++++++++",
"++++++++++++++++++++++++++++++++",
"++++++++++++++++++++++++++++++++",
"++++++++++++++++++++++++++++++++"
};
