/* XPM */
static char *NA__[] = {
/* columns rows colors chars-per-pixel */
"32 32 5 1 ",
"  c #FD0507",
". c #FC0607",
"X c #FC0508",
"o c #FD0608",
"O c None",
/* pixels */
"OOOOOOOOOOOOOOOOOOOOOOOOOOOOOOOO",
"OOOOOOOOOOOOOOOOOOOOOOOOOOOOOOOO",
"OOOOOOOOOOOOOOOOOOOOOOOOOOOOOOOO",
"OOOOOOOOOOOOOOOOOOOOOOOOOX OOOOO",
"OOOOOOOOOOOOOOOOOOOOOOOO XXOOOOO",
"OOOOOOOOOOOOOOOOOOOOOOOX XXOOOOO",
"OOOOOOOOOOOOOOOOOOOOOOO OXXOOOOO",
"OOOOOOOOOOOOOOOOOOOOOO OOoXOOOOO",
"OOOOOOOOOOOOOOOOOOOOOooOOoXOOOOO",
"OOOOOOOOOOOOOOOOOOOOO OOOoXOOOOO",
"OOOOOOOOOOOOOOOOOOOO OOOOoXOOOOO",
"OOOOOOOOOOOOOOOOOOOOooooooooOOOO",
"OOOOOOOOOOOOOOOOOOOOOOOOOo OOOOO",
"OOOOOOOOOOOOOOOOOOOOOOOOOoXOOOOO",
"OOOOOOOOOOOOOOOOOOOOOOOOOoXOOOOO",
"OOOOOOOOOOOOOOOOOOOOOOOOOOOOOOOO",
"OOOOOOOOOOOOOOOOOOOOOOOOOOOOOOOO",
"OOOOOOOOOOOOOOOOOOOOOOOOOOOOOOOO",
"OOOOOOOOOOOOOOOOOOOOOOOOOOOOOOOO",
"OOOOOOOOOOOOOOOOOOOOOOOOOOOOOOOO",
"OOOOOOOOOOOOOOOOOOOOOOOOOOOOOOOO",
"OOOOOOOOOOOOOOOOOOOOOOOOOOOOOOOO",
"OOOOOOOOOOOOOOOOOOOOOOOOOOOOOOOO",
"OOOOOOOOOOOOOOOOOOOOOOOOOOOOOOOO",
"OOOOOOOOOOOOOOOOOOOOOOOOOOOOOOOO",
"OOOOOOOOOOOOOOOOOOOOOOOOOOOOOOOO",
"OOOOOOOOOOOOOOOOOOOOOOOOOOOOOOOO",
"OOOOOOOOOOOOOOOOOOOOOOOOOOOOOOOO",
"OOOOOOOOOOOOOOOOOOOOOOOOOOOOOOOO",
"OOOOOOOOOOOOOOOOOOOOOOOOOOOOOOOO",
"OOOOOOOOOOOOOOOOOOOOOOOOOOOOOOOO",
"OOOOOOOOOOOOOOOOOOOOOOOOOOOOOOOO"
};
