/* XPM */
static char *OA__[] = {
/* columns rows colors chars-per-pixel */
"32 32 6 1 ",
"  c #FD0507",
". c #FC0607",
"X c #FC0508",
"o c #FD0508",
"O c #FD0608",
"+ c None",
/* pixels */
"++++++++++++++++++++++++++++++++",
"++++++++++++++++++++++++++++++++",
"++++++++++++++++++++++++++++++++",
"++++++++++++++++++++++OOO.++++++",
"+++++++++++++++++++++ OOOOO+++++",
"++++++++++++++++++++OO++++OX++++",
"++++++++++++++++++++OO++++OX++++",
"+++++++++++++++++++++O++++ O++++",
"++++++++++++++++++++++OO OO+++++",
"+++++++++++++++++++++O OO O+++++",
"++++++++++++++++++++O ++++OO++++",
"++++++++++++++++++++XO++++OO++++",
"++++++++++++++++++++OO++++ O++++",
"+++++++++++++++++++++O +++O ++++",
"+++++++++++++++++++++O OOOO+++++",
"++++++++++++++++++++++++++++++++",
"++++++++++++++++++++++++++++++++",
"++++++++++++++++++++++++++++++++",
"++++++++++++++++++++++++++++++++",
"++++++++++++++++++++++++++++++++",
"++++++++++++++++++++++++++++++++",
"++++++++++++++++++++++++++++++++",
"++++++++++++++++++++++++++++++++",
"++++++++++++++++++++++++++++++++",
"++++++++++++++++++++++++++++++++",
"++++++++++++++++++++++++++++++++",
"++++++++++++++++++++++++++++++++",
"++++++++++++++++++++++++++++++++",
"++++++++++++++++++++++++++++++++",
"++++++++++++++++++++++++++++++++",
"++++++++++++++++++++++++++++++++",
"++++++++++++++++++++++++++++++++"
};
