/* XPM */
static char *result[] = {
/* columns rows colors chars-per-pixel */
"32 32 106 2 ",
"   c #13110F",
".  c #001010",
"X  c #011010",
"o  c #011110",
"O  c #001111",
"+  c #021010",
"@  c #031010",
"#  c #021110",
"$  c #031110",
"%  c #031210",
"&  c #021310",
"*  c #001313",
"=  c #021312",
"-  c #021313",
";  c #041110",
":  c #041210",
">  c #051310",
",  c #051411",
"<  c #071410",
"1  c #071510",
"2  c #001414",
"3  c #001515",
"4  c #001616",
"5  c #001717",
"6  c #021616",
"7  c #0F1010",
"8  c #081410",
"9  c #031917",
"0  c #041917",
"q  c #081C17",
"w  c #001818",
"e  c #011818",
"r  c #021818",
"t  c #061A18",
"y  c #001C1C",
"u  c #001D1D",
"i  c #001F1F",
"p  c #101010",
"a  c #111010",
"s  c #101111",
"d  c #002020",
"f  c #02312F",
"g  c #05302D",
"h  c #003030",
"j  c #21392A",
"k  c #CE7B04",
"l  c #F57301",
"z  c #F67501",
"x  c #F77501",
"c  c #F97500",
"v  c #FB7501",
"b  c #F87601",
"n  c #FA7601",
"m  c #FD7600",
"M  c #FE7600",
"N  c #FE7700",
"B  c #FF7700",
"V  c #FE7800",
"C  c #FF7900",
"Z  c #DC8403",
"A  c #DE8402",
"S  c #EF8701",
"D  c #F58901",
"F  c #FA8901",
"G  c #F98A00",
"H  c #FB8B00",
"J  c #FC8900",
"K  c #FC8C00",
"L  c #FD8C00",
"P  c #FF8D00",
"I  c #E79C02",
"U  c #EB9D01",
"Y  c #EE9F01",
"T  c #F89001",
"R  c #F99201",
"E  c #FB9300",
"W  c #FE9100",
"Q  c #FC9200",
"!  c #FF9200",
"~  c #FE9400",
"^  c #FE9500",
"/  c #F79D01",
"(  c #FD9D00",
")  c #EEA001",
"_  c #F3A200",
"`  c #F7A300",
"'  c #F9A000",
"]  c #F8A300",
"[  c #FFA100",
"{  c #FEA300",
"}  c #F8A500",
"|  c #FBA700",
" . c #FEA600",
".. c #FEA701",
"X. c #FBA800",
"o. c #FCA800",
"O. c #FDA800",
"+. c #FDA801",
"@. c #FDA901",
"#. c #FEA800",
"$. c #FEA900",
"%. c #FEA901",
"&. c #FFAA00",
"*. c #F1DA19",
"=. c #F3DA18",
"-. c #FADF18",
/* pixels */
"p p p p p p p p p p p p p p p p p p p p p p p p p p p p p p p p ",
"p d h h h h h h h h d d d d d d p d h h h h h h h h h h d d d d ",
"p h d d w w d w h w w w w w w . p h d d w w d d h . . w w w w . ",
"p h d w d w . w d d w d w w w . p h d w d w w w d . w d w w w . ",
"p h d d d d w . w w . w d w . . p h d d d d w d w d . w d w . . ",
"p h w d w w d . . d . . d . w . p h w d w w d w w w . . w . w . ",
"p h w w d w d w . . d . d d . w p h w w d w d d w w d w w w . w ",
"p h w d w d d d w d . . d w w . p h w d w d . . w w w d d w w . ",
"p h w d d d w w w d d d w O 3 e s h y i d . . w w d w w w . . w ",
"p h d d w w w w . w w w 2 w w 0 a f w w w . w w . w w w . w w . ",
"p h d w w d w w w w . 3 6 9 o.} | o.&.w 2 . w w w d . w w w . . ",
"p d w w w w . w w . 4 . , $.=.^ Q ^ E U 1 . . . . d w . w . w . ",
"p d w d w w w w d w * : O.*.Y B B c ` -.N $ . w d d . w . w . . ",
"p d w w . w . w . w . . &.H z ..[ ( N Z m 8 w d . w . . . . w . ",
"p d w w w . w w . . . o X.J M O.&.#.B k m X * w . . w . . w . . ",
"p d . . . w . . . . @ # ) K B $.&./ B A v ; + . w . . w . . . . ",
"p p p p p p p p p p p p _ L B @.$.] B S N   7 p p p p p p p p p ",
"p d h h h h h h h h . q $.G B +.&.%.B F B g h h h h h h d d d d ",
"p h d d w w d w h d 5 0 $.~ n ' $.@.x W M e w h d w w w w w w . ",
"p h d w d w w w w w * & o.R { N B b  .D l r w w d d w d w w w . ",
"p h d d d d w d w w 4 * e I R ^ ! P T B t w w d w d w w d w . . ",
"p h w d w w d w w w w w - < C B B B V % w u w w w w w w w . w . ",
"p h w w d w d w d w d w 3 = O > p j 9 4 w w w w w w d w w w . w ",
"p h w d w d w d . w w w w . O O p h 2 w w d w d w w w d d w w . ",
"p h w d d d w w w d . w w . . . p h . . d d w w w d w w w . . w ",
"p h d d w w w w . w . w . w w . p w . . . w d w . w w w . w w . ",
"p h d w w d w w w w . w w w . . p w . . w d d w w w . w w w . . ",
"p d w w w w . w w . w . w . w . p w . . . . w d w . w . w . w . ",
"p d w d w w w w w w . w . w . . p w . . . . . d w w . w . w . . ",
"p d w w . w . w . w . . . . w . p d . w . . . d . w . . . . w . ",
"p d w w w . w w . . w . . w . . p d w . w . . w . . w . . w . . ",
"p d . . . w . . w . . w . . . . p d . . . w . . w . . w . . . . "
};
