/* XPM */
static char *ZW1l[] = {
/* columns rows colors chars-per-pixel */
"32 32 105 2 ",
"   c #101010",
".  c #101717",
"X  c #111A1A",
"o  c #132E2E",
"O  c #133535",
"+  c #133636",
"@  c #143A3A",
"#  c #202020",
"$  c #202424",
"%  c gray19",
"&  c #303939",
"*  c #144646",
"=  c #154D4D",
"-  c #2E4949",
";  c #3F4444",
":  c #3E4D4D",
">  c #3D5151",
",  c #3C5757",
"<  c #176363",
"1  c #176C6C",
"2  c #187272",
"3  c #197C7C",
"4  c #2C6464",
"5  c #386A6A",
"6  c #2B7777",
"7  c #2B7B7B",
"8  c gray25",
"9  c #404141",
"0  c #4E5757",
"q  c #4E5858",
"w  c #505050",
"e  c #505353",
"r  c #4A6565",
"t  c #486C6C",
"y  c #5E6464",
"u  c #5D6666",
"i  c #5A6F6F",
"p  c #567676",
"a  c #606060",
"s  c #6F7272",
"d  c #6D7676",
"f  c #667F7F",
"g  c gray44",
"h  c #1A8989",
"j  c #1B9595",
"k  c #1B9A9A",
"l  c #1C9C9C",
"z  c #1C9F9F",
"x  c #2A8686",
"c  c #338787",
"v  c #338C8C",
"b  c #309F9F",
"n  c #1CA4A4",
"m  c #1DACAC",
"M  c #1EB7B7",
"N  c #1EBCBC",
"B  c #26AFAF",
"V  c #3EAEAE",
"C  c #2BB6B6",
"Z  c #2ABCBC",
"A  c #33B3B3",
"S  c #3BB5B5",
"D  c #4F8585",
"F  c #5C8E8E",
"G  c #499494",
"H  c #469999",
"J  c #589696",
"K  c #608989",
"L  c #738D8D",
"P  c #699A9A",
"I  c #42A5A5",
"U  c #4BACAC",
"Y  c #43B7B7",
"T  c #48B0B0",
"R  c #25C1C1",
"E  c #29C6C6",
"W  c #24CACA",
"Q  c #27CACA",
"!  c #35C0C0",
"~  c #39C7C7",
"^  c #33CFCF",
"/  c #38C9C9",
"(  c #21D5D5",
")  c #29D1D1",
"_  c #2BD7D7",
"`  c #20D9D9",
"'  c #26DADA",
"]  c #24DFDF",
"[  c #28DEDE",
"{  c #31D9D9",
"}  c #38D9D9",
"|  c #21E0E0",
" . c #26E3E3",
".. c #22E5E5",
"X. c #27E6E6",
"o. c #2BE3E3",
"O. c #29E4E4",
"+. c #23EAEA",
"@. c #22EBEB",
"#. c #48C1C1",
"$. c #41D1D1",
"%. c #808080",
"&. c #8E9191",
"*. c #859999",
"=. c #909090",
/* pixels */
"                      %           %                             ",
"  g =.%.=.  g =.%.g g   =.%.g =.%.  =.g %.g =.  =.g g g %.%.g g ",
"  %.a a w % g a a a %   g a a w 9   g a 9 w 9   g a a w w 8 w % ",
"  %.a w % % g a 9 % 9 % g w 9 9 % % g w % 9 %   g w w 9 8 % w % ",
"        %   %           %           %   %     # %               ",
"%   &.Y X.@. .U a   &.O.I } @.O.U i R O.o.H g a % G o.@.o.n a g ",
"%   $.@...A ' @.b   d @.@.X.! +.@.....~ @.@.9 w 1 @.@.C E @.{ w ",
"% + @.[ a 9 w ] +.& u @.@.> & c @...o g v @.c 9 ..@.: w 9 m @.4 ",
"  2 @.M < < < W @.* X @.R %   + @.Z # # = @.3 @ @.` < < < k @.h ",
"  #.@.@.@.@.@.@.@.J d @.~ =.g p @.S g %.K @.3 D @.@.@.@.@.@.+.Z ",
"  T @.V r r , - + u u @.C 9 % - @.S a w 5 @.3 K @.Q r , r r - w ",
"  J @.) 9 w % Z ] p 0 @.B 9 w , @.S w 9 4 @.3 a @.+.9 w ; x X.7 ",
"    ( @.N 6 l @.Z % X +.C     o @.j %   * @.3   n @.( 2 3 @.| . ",
"%   f { @.@.@.^ *.&.=.X.C a g L @.S   =.P +.U a a n @.X.@._ F q ",
"%   g a 0 @ g 9 0 & 8 w   g w w 9 w   g w w w 9 w   g t e 9 ; w ",
"%   g w 9   g w & 0 w w   g w 9 w 9   g w 9 w % 9 % a w 9 e 9 & ",
"    %                           %   %             %           % ",
"  %.=.=.%.a %.g g a   a g g =.a   a =.%.=.a a % a g g =.g g a a ",
"  g a w 8 8 w w 8 w   g w 8 w 8   g w 9 w w 9 % =.w 9 w w 8 8 w ",
"  g a 8 w w 8 8 w w % a w w 8 w   g w % 9 w w   %.w 9 w 8 w w 8 ",
"            % %       %         %     % %     %         %   %   ",
"%   g %.g a % a =.g =.g a   g =.a g a % a g =.g a g g a % a g g ",
"%   =.a w 8   %.w w w w 8   g w w w 9   g w w w 8 w % 8 % g w 8 ",
"%   g a 8 %   g w 8 % 8 %   a w 9 % 9   a w 9 % 8 8 8 %   a 8 % ",
"          %     %   %           %     % %         %         %   ",
"  g =.g   a g %.=.a   a g =.%.a   a g =.%.g a g a   a g g a a a ",
"  =.a 8   =.8 w w 8   g w 8 w 8 % g w 8 8 8 w w 8 % g w 8 % 8 w ",
"  g w %   g w 8 % %   g 8 % 8 %   a w 8 % 8 w 8 %   g 8 % 8 w 8 ",
"          % %       %     %   % %     %         % %             ",
"  % %.=.g a   %.g =.=.a a   g =.a =.w % =.=.g a   g g =.=.g a w ",
"  % g 8 8 %   g 8 w 8 w 8   g w 8 8 %   g w 8 8   g w 8 8 8 w 8 ",
"  % 8 % % %   a % % % % %   8 % % % %   w % % %   w % % % % % % "
};
