/* XPM */
static char *result[] = {
/* columns rows colors chars-per-pixel */
"32 32 201 2 ",
"   c black",
".  c #010101",
"X  c #020202",
"o  c gray1",
"O  c #040404",
"+  c gray2",
"@  c #070707",
"#  c gray3",
"$  c gray4",
"%  c gray6",
"&  c #1C0000",
"*  c #101010",
"=  c #111111",
"-  c gray7",
";  c #131313",
":  c gray8",
">  c #151515",
",  c #191714",
"<  c #1E1C19",
"1  c #2C0000",
"2  c #310000",
"3  c #3F0000",
"4  c #221416",
"5  c #2D181A",
"6  c #381B1F",
"7  c #002900",
"8  c #24211D",
"9  c #24211E",
"0  c #382D1B",
"q  c gray13",
"w  c #272420",
"e  c #2B2723",
"r  c #2A2824",
"t  c #2D2A26",
"y  c #2E2A26",
"u  c #2D2D2D",
"i  c #302C28",
"p  c #312D29",
"a  c #342F2B",
"s  c #35312C",
"d  c #36322D",
"f  c #37332E",
"g  c #38342F",
"h  c #39342F",
"j  c #353535",
"k  c #3A3530",
"l  c #3B3732",
"z  c #3C3832",
"x  c #3D3833",
"c  c #3D3933",
"v  c #3C3834",
"b  c #3E3934",
"n  c #3E3A34",
"m  c #3E3A35",
"M  c #3F3A35",
"N  c #3F3B35",
"B  c #393939",
"V  c #530000",
"C  c #530202",
"Z  c #660000",
"A  c #6C0000",
"S  c #7C0000",
"D  c #4F252B",
"F  c #403C36",
"G  c #413C37",
"H  c #413D37",
"J  c #403D39",
"K  c #423D38",
"L  c #433E38",
"P  c #423E39",
"I  c #433E39",
"U  c #433F39",
"Y  c #443F39",
"T  c #443F3A",
"R  c #682F37",
"E  c #004200",
"W  c #004300",
"Q  c #005101",
"!  c #005201",
"~  c #005902",
"^  c #005A02",
"/  c #005E02",
"(  c #005F02",
")  c #006002",
"_  c #006102",
"`  c #45413B",
"'  c #46413B",
"]  c #47423C",
"[  c #48433D",
"{  c #49443E",
"}  c #49443F",
"|  c #4B463F",
" . c #68522F",
".. c #7F6338",
"X. c gray27",
"o. c #4B4640",
"O. c #4C4740",
"+. c #4C4741",
"@. c #4D4842",
"#. c #4D4943",
"$. c #4E4842",
"%. c #4E4942",
"&. c #4E4943",
"*. c #504A44",
"=. c #504B44",
"-. c #504B45",
";. c #514B45",
":. c #514C45",
">. c #524C46",
",. c #524D46",
"<. c #524D47",
"1. c #534D47",
"2. c #534E47",
"3. c #544F48",
"4. c #554F49",
"5. c #515151",
"6. c #5D5D5D",
"7. c #686868",
"8. c gray42",
"9. c #767676",
"0. c #7E7E7E",
"q. c #8A0000",
"w. c #925E1F",
"e. c #986321",
"r. c #9E6823",
"t. c #AA752A",
"y. c #AB762A",
"u. c #AC762B",
"i. c #AC772B",
"p. c #977541",
"a. c #B48030",
"s. c #B68231",
"d. c #B98533",
"f. c #BB8835",
"g. c #BC8935",
"h. c #BE8B37",
"j. c #A78246",
"k. c cyan",
"l. c #3FFFFF",
"z. c #64FFFF",
"x. c #7BFFFF",
"c. c #808080",
"v. c #848484",
"b. c #878786",
"n. c #8B8B8B",
"m. c #8E8E8E",
"M. c gray56",
"N. c #929292",
"B. c gray58",
"V. c #959595",
"C. c gray59",
"Z. c #9B9A9A",
"A. c #9B9B9B",
"S. c #9D9D9D",
"D. c #A59F98",
"F. c #A0A0A0",
"G. c #A2A2A2",
"H. c #A4A4A4",
"J. c #A5A5A5",
"K. c gray65",
"L. c #A7A7A7",
"P. c gray66",
"I. c gray68",
"U. c #AEAEAE",
"Y. c gray69",
"T. c gray70",
"R. c #B4B4B4",
"E. c gray71",
"W. c #B6B6B6",
"Q. c #B7B7B7",
"!. c gray73",
"~. c #BCBCBC",
"^. c #8AFFFF",
"/. c #8FFFFF",
"(. c #90FFFF",
"). c #95FFFF",
"_. c #99FFFF",
"`. c #9AFFFF",
"'. c #9FFFFF",
"]. c #A0FFFF",
"[. c #A3FFFF",
"{. c #A6FFFF",
"}. c #A9FFFF",
"|. c #ACFFFF",
" X c #B1FFFF",
".X c #BBFFFF",
"XX c #C0C0C0",
"oX c #C1C1C1",
"OX c #C3C3C3",
"+X c #C6C6C6",
"@X c gray78",
"#X c #C8C8C8",
"$X c #CBCBCB",
"%X c #CDCDCD",
"&X c #CECECE",
"*X c gray81",
"=X c #D2D2D2",
"-X c #C4FFFF",
";X c #CFFFFF",
":X c #D3FFFF",
">X c white",
/* pixels */
"$   $ > $     $ $   $ $   $ > > $ $ $ $   $ $ > > $ $   $   $ $ ",
"$ 5.6.5.7.5.X.6.7.6.5.6.5.X.6.5.6.X.6.5.X.5.X.B X.X.B B u u u   ",
"$ 7.5.7.5.X.X.5.6.X.5.7.6.X.X.6.6.5.6.7.6.6.X.X.B B X.B B u u   ",
"> 5.6.6.X.5.6.6.X.6.B B > > q q q q > > u B 5.5.X.B X.X.B B u $ ",
"$ 7.6.X.5.7.6.B B u > >                 > > u B 5.X.X.B X.B u   ",
"> 7.5.5.6.X.B B u >     %XXXQ.Q.A.-   :     > u B 5.X.X.B X.u > ",
"$ 6.7.5.X.B u > >     J.8.+X$ C.+ % . F.N.#X  > > B B B X.X.u $ ",
"  5.6.7.B u > 5 4   ^.o n..   X # *XU.P.v.    4 5 > u B u B u > ",
"$ 6.7.X.u q 5 5 4   ^.. ; o   = H.%XU.P.V.O   4 5 5 > u B u B $ ",
"  5.X.B > 6 5 5 4   ^.C X L.* F.F.$X~.T.Y.O   4 5 5 6 > B X.u > ",
"  7.5.> 6 R 5 5 4   .XZ W.K.E.+X!.m.G.I.M.O   4 5 5 R 6 X.B B > ",
"  5.X.> 6 R 5 5 4   -XA OX!.&X  X @ E.M.S.    4 5 5 R 6 6.B X.> ",
"$ 6.7.$ 6 D 5 5 4   }.S   F.0.b.Z.9.~.=X      4 5 5 D 6 7.u u > ",
"> 6.X.$ 6 D 5 5 4       Y F g i y i a } s     4 5 5 D 6 7.B u > ",
"> 6.5.> 4 4 p.5 4   R.+.;.:.,.:.>X;.*.I %.P   4 5 p.4 4 7.B u $ ",
"$ 5.B q 5 5 p. .4   j.,.;.H 3.4.3.3.,.M -.#.  4  .p.5 5 6.X.B $ ",
"$ B u > 6 6 .. .0   h.g.{ H 2.3.>X3.2.b %.f.  0  ...6 6 6.X.u $ ",
"  u B > 4 4 ..5 0   ,.s.i.U ,.2.1.2.>.l a.d.  0 5 ..4 4 7.B u > ",
"  B u $ 6 R 5 5 4   =.d d ] <.2.>X2.,.L r.o.  4 5 5 R 6 5.X.B > ",
"$ X.B $ 6 R 5 5 4   $.K H o.1.-.%.:.1.[ H [   4 5 5 R 6 7.5.X.$ ",
"  5.X.$ 6 D 5 5 4   K p L :.&.K ) ' =.=.z H   4 5 5 D 6 6.5.5.$ ",
"$ 6.X.> 6 D 5 5 4   D.+ | O.M / W ! T @.` +   4 5 5 D 6 5.B 5.  ",
"  6.5.> 4 4 p.5 4   j r U k _ ^ 7 Q t N G :   4 5 p.4 4 6.B 5.$ ",
"$ 5.7.q 5 5 p. .4       * L.( ~   ! ~ E       4  .p.5 5 5.B X.> ",
"$ X.5.> 6 6 .. .0   }.3 B.c.#XY 8 U.K.oX  '.  0  ...6 6 5.u B > ",
"> B 7.q 4 4  .5 0   `.^.+ R.P c   J @Xv   ^.  0 5  .4 4 5.u B $ ",
"$ B 5.> 6 R 5 5 4    X^.  N m h   f n x   ^.  4 5 5 R 6 5.u u   ",
"> B X.> 6 R 5 5 4   ^.^.  w i 9   < e ,   ^.  4 5 5 R 6 X.u u $ ",
"$ B B > 6 D 5 4   ^.^.V u.t.i.    t.t.y.  ^.|.  4 5 D 6 X.q u > ",
"$ B B q 6 D 4   ;X^.:X& w.w.w.    w.w.e.3 {.^.;X  4 D 6 B q q $ ",
"> u q > 4 4   /.^.^.l.z.1 2   ^.^.  q.  ^.'.^.].^.  4 4 B q q > ",
"$ > $ $     ^./.^.^.l.z.x.k.k.^.^.^.^.^.^.[.(._.).}.    > $ > $ "
};
