/* XPM */
static char *result[] = {
/* columns rows colors chars-per-pixel */
"32 32 137 2 ",
"   c black",
".  c #000303",
"X  c gray1",
"o  c gray5",
"O  c #1C0C0E",
"+  c #1B1B1B",
"@  c #291113",
"#  c #351419",
"$  c #352914",
"%  c #042828",
"&  c #052B2B",
"*  c gray16",
"=  c gray21",
"-  c #4E2027",
";  c #682B34",
":  c #68512B",
">  c #094E4E",
",  c #0B5E5E",
"<  c #0F7C7C",
"1  c #434343",
"2  c #505050",
"3  c #5D5D5D",
"4  c #686868",
"5  c #806335",
"6  c #98763F",
"7  c #0CE1E1",
"8  c #0CE4E4",
"9  c #0FE4E4",
"0  c #0FE5E5",
"q  c #0DE7E7",
"w  c #0EE6E6",
"e  c #0EE7E7",
"r  c #0FE7E7",
"t  c #0BEAEA",
"y  c #0DE8E8",
"u  c #0EE9E9",
"i  c #0DEAEA",
"p  c #0EEAEA",
"a  c #11E5E5",
"s  c #12E4E4",
"d  c #13E5E5",
"f  c #10E6E6",
"g  c #11E6E6",
"h  c #11E7E7",
"j  c #13E6E6",
"k  c #12E7E7",
"l  c #13E7E7",
"z  c #15E6E6",
"x  c #14E7E7",
"c  c #15E7E7",
"v  c #16E6E6",
"b  c #17E6E6",
"n  c #16E7E7",
"m  c #17E7E7",
"M  c #18E7E7",
"N  c #1BE7E7",
"B  c #10E8E8",
"V  c #11E8E8",
"C  c #11E9E9",
"Z  c #12E8E8",
"A  c #13E8E8",
"S  c #13E9E9",
"D  c #10EAEA",
"F  c #13EAEA",
"G  c #13EBEB",
"H  c #14E8E8",
"J  c #15E8E8",
"K  c #14E9E9",
"L  c #15E9E9",
"P  c #16E8E8",
"I  c #17E8E8",
"U  c #16E9E9",
"Y  c #17E9E9",
"T  c #14EAEA",
"R  c #15EAEA",
"E  c #14EBEB",
"W  c #15EBEB",
"Q  c #17EAEA",
"!  c #16EBEB",
"~  c #17EBEB",
"^  c #13ECEC",
"/  c #12EEEE",
"(  c #14ECEC",
")  c #15ECEC",
"_  c #15EDED",
"`  c #17ECEC",
"'  c #16EDED",
"]  c #17EDED",
"[  c #14EEEE",
"{  c #15EFEF",
"}  c #16EEEE",
"|  c #17EFEF",
" . c #18E8E8",
".. c #19E8E8",
"X. c #18E9E9",
"o. c #19E9E9",
"O. c #1AE8E8",
"+. c #1AE9E9",
"@. c #18EAEA",
"#. c #19EAEA",
"$. c #18EBEB",
"%. c #19EBEB",
"&. c #1AEAEA",
"*. c #1BEAEA",
"=. c #1AEBEB",
"-. c #1DE9E9",
";. c #1EE9E9",
":. c #1CEAEA",
">. c #1CEBEB",
",. c #1DEBEB",
"<. c #1FEAEA",
"1. c #18ECEC",
"2. c #19ECEC",
"3. c #18EDED",
"4. c #19EDED",
"5. c #1AECEC",
"6. c #1BECEC",
"7. c #18EEEE",
"8. c #19EEEE",
"9. c #18EFEF",
"0. c #19EFEF",
"q. c #1AEFEF",
"w. c #1CECEC",
"e. c #1DECEC",
"r. c #1CEDED",
"t. c #1EECEC",
"y. c #1DEEEE",
"u. c #19F0F0",
"i. c #1AF0F0",
"p. c #21E9E9",
"a. c #21EAEA",
"s. c #21EBEB",
"d. c #22EAEA",
"f. c #22ECEC",
"g. c #26ECEC",
"h. c #2EEEEE",
"j. c None",
/* pixels */
"X   X o X     X X   X X   X o o X X X X   X X o o X X   X   X X ",
"X 2 3 2 4 2 1 3 4 3 2 3 2 1 3 2 3 1 3 2 1 2 1 = 1 1 = = * * *   ",
"X 4 2 4 2 1 1 2 3 1 2 4 3 1 1 3 3 2 3 4 3 3 1 1 = = 1 = = * *   ",
"o 2 3 3 1 2 3 3 1 3 = = o o + + + + o o * = 2 2 1 = 1 1 = = * X ",
"X 4 3 1 2 4 3 = = * o o                 o o * = 2 1 1 = 1 = *   ",
"o 4 2 2 3 1 = = * o   , N ..b l } a I -.< & o * = 2 1 1 = 1 * o ",
"X 3 4 2 1 = * o o   s.d.s.:.%.2.%.1.#.;.:.j.  o o = = = 1 1 * X ",
"  2 3 4 = * o @ O   a.<.,.2.2.2.2.W 1.` &.j.  O @ o * = * = * o ",
"X 3 4 1 * + @ @ O   p.a.w.2.&.#.@.Y %.S H V   O @ @ o * = * = X ",
"  2 1 = o # @ @ O   f.g.w.~ >.#.$.1.2.z m 9   O @ @ # o = 1 * o ",
"  4 2 o # ; @ @ O   &.h.y.2.%.$.2.2.2.j I C   O @ @ ; # 1 = = o ",
"  2 1 o # ; @ @ O   C O.y.2.1.%.2.2.2.c X.e   O @ @ ; # 3 = 1 o ",
"X 3 4 X # - @ @ O   0 d 5.$.2.2.2.2.2.n  .q   O @ @ - # 4 * * o ",
"o 3 1 X # - @ @ O   V A r.@.2.2.2.2.2.m  .e   O @ @ - # 4 = * o ",
"o 3 2 o O O 6 @ O   D @.) $.2.2.2.2.2.v m w   O @ 6 O O 4 = * X ",
"X 2 = + @ @ 6 : O   r @.| $.2.2.2.2.2.x l p   O : 6 @ @ 3 1 = X ",
"X = * o # # 5 : $   q #.W 2.$.2.2.2.2.M n r   $ : 5 # # 3 1 * X ",
"  * = o O O 5 @ $   i 2.E ~ ! $.%.2.2.G s y   $ @ 5 O O 4 = * o ",
"  = * X # ; @ @ O   u %.B 3.{ o.` #.1.#.L p   O @ @ ; # 2 1 = o ",
"X 1 = X # ; @ @ O   p 2.k ! U %.%.Q 1.t 7 [   O @ @ ; # 4 2 1 X ",
"  2 1 X # - @ @ O   C #.Z R ) 2.2.2.1.f 8 j.  O @ @ - # 3 2 2 X ",
"X 3 1 o # - @ @ O   ^ o.g T _ 2.%.2.2.M  .j.  O @ @ - # 2 = 2   ",
"  3 2 o O O 6 @ O   n =.J E W 2.%.2.2.K J +.  O @ 6 O O 3 = 2 X ",
"X 2 4 + @ @ 6 : O   F L @.+.W 2.2.2.%.k P U   O : 6 @ @ 2 = 1 o ",
"X 1 2 o # # 5 : $   L T 3.R K ` %.2.%.r P j.  $ : 5 # # 2 * = o ",
"o = 4 + O O : @ $   V a 1.1.Q 3.2.Q ~ f S j.  $ @ : O O 2 * = X ",
"X = 2 o # ; @ @ O . H T 1.2.2.2.2.2.` h L j.  O @ @ ; # 2 * *   ",
"o = 1 o # ; @ @ O % 2.2.$.1.2.2.2.4.2.( $.j.  O @ @ ; # 1 * * X ",
"X = = o # - @ O   j.4.4.%.1.2.2.5.2.2.2.] $.j.  O @ - # 1 + * o ",
"X = = + # - O   j.o.=.1.@.U 4.6.7.4.2.4.2.4.*.j.  O - # = + + X ",
"o * + o O O > *.5.#.~ ! 1.3.3.=.6.8.R / X.~ %.#.j.  O O = + + o ",
"X o X X     t.:.*.#.$.u.u.0.i.0.9.4.0.q.' ' =.5.e.j.    o X o X "
};
