/* XPM */
static char *result[] = {
/* columns rows colors chars-per-pixel */
"32 32 215 2 ",
"   c black",
".  c #010101",
"X  c #020202",
"o  c gray1",
"O  c #040404",
"+  c gray2",
"@  c #060606",
"#  c #070606",
"$  c #070707",
"%  c #080606",
"&  c #090707",
"*  c gray3",
"=  c #0B0909",
"-  c gray4",
";  c #0C0C0C",
":  c gray5",
">  c #0E0D0D",
",  c gray6",
"<  c #001010",
"1  c #001111",
"2  c #001212",
"3  c #001313",
"4  c #001414",
"5  c #001515",
"6  c #001616",
"7  c #001717",
"8  c #021717",
"9  c #071515",
"0  c #0F1010",
"q  c #001818",
"w  c #001A1A",
"e  c #001B1B",
"r  c #001D1D",
"t  c #001E1E",
"y  c #001F1F",
"u  c #101010",
"i  c #111111",
"p  c gray7",
"a  c #131313",
"s  c gray8",
"d  c #191714",
"f  c #1E1C19",
"g  c #002900",
"h  c #24211D",
"j  c #24211E",
"k  c #002020",
"l  c #012121",
"z  c #002222",
"x  c #002C2C",
"c  c #003030",
"v  c #202020",
"b  c #272420",
"n  c #2B2723",
"m  c #2A2824",
"M  c #2D2A26",
"N  c #2E2A26",
"B  c #302C28",
"V  c #312D29",
"C  c #342F2B",
"Z  c #35312C",
"A  c #36322D",
"S  c #37332E",
"D  c #38342F",
"F  c #39342F",
"G  c #353535",
"H  c #3A3530",
"J  c #3B3732",
"K  c #3C3832",
"L  c #3D3833",
"P  c #3D3933",
"I  c #3C3834",
"U  c #3E3934",
"Y  c #3E3A34",
"T  c #3E3A35",
"R  c #3F3A35",
"E  c #3F3B35",
"W  c #403C36",
"Q  c #413C37",
"!  c #413D37",
"~  c #403D39",
"^  c #423D38",
"/  c #433E38",
"(  c #423E39",
")  c #433E39",
"_  c #433F39",
"`  c #443F39",
"'  c #443F3A",
"]  c #004200",
"[  c #004300",
"{  c #005101",
"}  c #005201",
"|  c #005902",
" . c #005A02",
".. c #005E02",
"X. c #005F02",
"o. c #006002",
"O. c #006102",
"+. c #45413B",
"@. c #46413B",
"#. c #47423C",
"$. c #48433D",
"%. c #49443E",
"&. c #49443F",
"*. c #4B463F",
"=. c #4B4640",
"-. c #4C4740",
";. c #4C4741",
":. c #4D4842",
">. c #4D4943",
",. c #4E4842",
"<. c #4E4942",
"1. c #4E4943",
"2. c #4F4A43",
"3. c #4F4A44",
"4. c #494949",
"5. c #504A44",
"6. c #504B44",
"7. c #504B45",
"8. c #514B45",
"9. c #514C45",
"0. c #524C46",
"q. c #524D46",
"w. c #524D47",
"e. c #534D47",
"r. c #534E47",
"t. c #544F48",
"y. c #554F49",
"u. c gray39",
"i. c gray40",
"p. c gray42",
"a. c #6D6D6D",
"s. c #767676",
"d. c #777777",
"f. c #7E7E7E",
"g. c #925E1F",
"h. c #986321",
"j. c #9E6823",
"k. c #AA752A",
"l. c #AB762A",
"z. c #AC762B",
"x. c #AC772B",
"c. c #B07C2E",
"v. c #9B7541",
"b. c #B48030",
"n. c #B68231",
"m. c #B98533",
"M. c #BB8835",
"N. c #BC8935",
"B. c #BE8B37",
"V. c #B0843F",
"C. c #A78246",
"Z. c #83817F",
"A. c #808080",
"S. c #848484",
"D. c #878786",
"F. c #898784",
"G. c #8C8987",
"H. c #8E8B87",
"J. c #8B8B8B",
"K. c #8F8C88",
"L. c #8F8C89",
"P. c #8D8D8D",
"I. c #8E8E8E",
"U. c gray56",
"Y. c #98958E",
"T. c #98948F",
"R. c gray57",
"E. c #929292",
"W. c gray58",
"Q. c #959595",
"!. c gray59",
"~. c #9A9A9A",
"^. c #9B9A9A",
"/. c #9B9B9B",
"(. c #9D9D9D",
"). c #9F9F9F",
"_. c #AC8888",
"`. c #A59F98",
"'. c #A0A0A0",
"]. c #A2A2A2",
"[. c #A4A4A4",
"{. c #A5A5A5",
"}. c gray65",
"|. c #A7A7A7",
" X c gray66",
".X c gray68",
"XX c #AEAEAE",
"oX c gray69",
"OX c #B2B2B2",
"+X c gray70",
"@X c #B4B4B4",
"#X c gray71",
"$X c #B6B6B6",
"%X c #B7B7B7",
"&X c gray73",
"*X c #BCBCBC",
"=X c #CD9E9E",
"-X c #D5A1A1",
";X c #E0ADAD",
":X c #EAADAD",
">X c #E9B1B1",
",X c #C0C0C0",
"<X c #C1C1C1",
"1X c #C3C3C3",
"2X c gray77",
"3X c #C6C6C6",
"4X c gray78",
"5X c #C8C8C8",
"6X c #CACACA",
"7X c #CBCBCB",
"8X c #CDCDCD",
"9X c #CECECE",
"0X c gray81",
"qX c #D2D2D2",
"wX c white",
/* pixels */
"v v u u u u u u u u : -   u u u u u u u   .   0 u u u u u u u v ",
"v k c c c c c c c * OX{.+ q y t 9 k x q   R.O X 2 q c c k k k k ",
"u c k k q q k q k & _.d.; 7 q 5 8 z r 7   a.;X# k < < q q q q < ",
"u c k q k q < q k % -XQ.- 3 4 4 4 5 w 7 . U.:X> k < q k q q q < ",
"u c k k k k q < q * =X2X4.@   . + @ X X   P.>X= q k < q k q < < ",
"u c q k q q k < < @ ).u.8X,X%X%X/.a   . '.i.X . q q < < q < q < ",
"u c q q k q k q 4 5   {.p.3X- !.+ O . '.E.5X. q q q k q q q < q ",
"u c q k q k q k q q q o J..   X * 0XXX XS.  < < q q q k k q q < ",
"u c q k k k q q q e q . a o   i [.8XXX XQ.O < q q k q q q < < q ",
"u c k k q q q q < q 7 X X |.u '.'.7X*X+XoXO q q < q q q < q q < ",
"u c k q q k q q q q <   $X}.#X3X&XI.]..XU.O q q q k < q q q < < ",
"u k q q q q < q q < q   1X&X9X  X $ #XU.(.  1 < < k q < q < q < ",
"u k q k q q q q q q <     '.f.D.^.s.*XqX    6 q k k < q < q < < ",
"u k q q < q < q <       ` W D B N B C &.Z     k < q < < < < q < ",
"u k q q q < q q + I.@X;.8.9.q.9.wX8.5.) <.( J.  < < q < < q < < ",
"u k < < < q <   ~.~.C.q.8.! t.y.t.t.q.R 7.>.v.4X  < < q < < < < ",
"u u u u u u u     c.B.N.%.! r.t.wXt.r.U <.M.V.6X  u u u u u u u ",
"u k c c c c c   ;.r.q.n.x._ q.r.e.r.0.J b.m.8.@.  c c c k k k k ",
"v c k k q q k   q.q.6.A A #.w.r.wXr.q./ j.=.8.7.  q q q q q q < ",
"v c k q k q q     2.,.^ ! =.e.7.<.9.e.$.! $.3.1.  k q k q q q < ",
"u c k k k k q   Y.L.^ V / 9.1.^ o.@.6.6.K ! Q     k q q k q < < ",
"u c q k q q k   G.Z.`.+ *.-.R ..[ } ' :.+.+ T.F.  q q q q < q < ",
"u c q q k q k q , K.G m _ H O. .g { M E Q s H.p q q k q q q < q ",
"u c q k q k q k <       u |.X.|   } | ]       k q q q k k q q < ",
"u c q k k k q q q k <   W.A.5X` h XX}.<X  k q q q k q q q < < q ",
"u c k k q q q q < q < q + @X( P   ~ 4XI   q k q < q q q < q q < ",
"u c k q q k q q q q < q   E T F   S Y L   k k q q q < q q q < < ",
"u k q q q q < q q < q <   b B j   f n d   < q k q < q < q < q < ",
"u k q k q q q q q q <   z.k.x.    k.k.l.  < < k q q < q < q < < ",
"u k q q < q < q < q <   g.g.g.    g.g.h.  < < k < q < < < < q < ",
"u k q q q < q q < < q <       < u       q < < q < < q < < q < < ",
"u k < < < q < < q < < q < < < < u k l 3 < q < < q < < q < < < < "
};
