/* XPM */
static char *bW92[] = {
/* columns rows colors chars-per-pixel */
"32 32 107 2 ",
"   c #101010",
".  c #111414",
"X  c #111515",
"o  c #111616",
"O  c #122222",
"+  c #143D3D",
"@  c #202020",
"#  c #202929",
"$  c #2F3737",
"%  c gray19",
"&  c #144242",
"*  c #144646",
"=  c #154B4B",
"-  c #155050",
";  c #165454",
":  c #165E5E",
">  c #3E4A4A",
",  c #3E4D4D",
"<  c #176767",
"1  c #2C6262",
"2  c #2B6E6E",
"3  c #386E6E",
"4  c #217474",
"5  c #2B7676",
"6  c #367979",
"7  c #357D7D",
"8  c gray25",
"9  c #404343",
"0  c #4E5656",
"q  c #505050",
"w  c #4A6464",
"e  c #5B6B6B",
"r  c #447A7A",
"t  c #606060",
"y  c #6D7676",
"u  c #6A7A7A",
"i  c gray44",
"p  c #1A8282",
"a  c #1A8989",
"s  c #1B9999",
"d  c #2A8B8B",
"f  c #358080",
"g  c #338A8A",
"h  c #3E8F8F",
"j  c #299292",
"k  c #299797",
"l  c #289898",
"z  c #319797",
"x  c #1DA9A9",
"c  c #1EBABA",
"v  c #21A3A3",
"b  c #27A9A9",
"n  c #39A1A1",
"m  c #36A9A9",
"M  c #35AEAE",
"N  c #26B3B3",
"B  c #25BABA",
"V  c #2ABDBD",
"C  c #39B7B7",
"Z  c #408383",
"A  c #508484",
"S  c #499494",
"D  c #489696",
"F  c #5B9191",
"G  c #5C9090",
"H  c #539E9E",
"J  c #618787",
"K  c #7C8484",
"L  c #42A2A2",
"P  c #44A0A0",
"I  c #45B4B4",
"U  c #40BCBC",
"Y  c #77A5A5",
"T  c #7EA0A0",
"R  c #24C7C7",
"E  c #35C0C0",
"W  c #34C3C3",
"Q  c #33C6C6",
"!  c #3EC0C0",
"~  c #30CBCB",
"^  c #35CCCC",
"/  c #20D0D0",
"(  c #24D1D1",
")  c #21D7D7",
"_  c #26D6D6",
"`  c #2CD4D4",
"'  c #27DBDB",
"]  c #21DEDE",
"[  c #25DDDD",
"{  c #28D8D8",
"}  c #2CDCDC",
"|  c #31D4D4",
" . c #30DFDF",
".. c #21E1E1",
"X. c #24E1E1",
"o. c #27E1E1",
"O. c #23E7E7",
"+. c #25E6E6",
"@. c #26E7E7",
"#. c #2EE0E0",
"$. c #22E8E8",
"%. c #23EAEA",
"&. c #22EBEB",
"*. c #4BCACA",
"=. c #808080",
"-. c #8B9494",
";. c #909090",
/* pixels */
"                      %           %                             ",
"  i ;.=.;.  i ;.=.i i   ;.=.i ;.=.  ;.i =.i ;.  ;.i i i =.=.i i ",
"  =.t O.$.( i t t t % & &.&.A q 8   i t 8 q 8   i t t q q 8 q % ",
"  =.t $.&.$.u t 8 % 8 b &.&.3 8 % % i q % 8 %   i q q 8 8 % q % ",
"      $.&.&.d         ..&.$.= o     %   %     @ $ . . .         ",
"%   ;.$.#.$.` i t   Y &.| @.G y i P ] &.@.E y t k @.-.=.t   C o.",
"%   ;.@.' W &., 8   ! @.m &.r q n &.] U ` $.{ q = &.M $ 8 o @.[ ",
"%   K $._ 6 $.g 8 % @.V m &.3 > @.$.# i $ Q &.f O @.o.q 8 : &.d ",
"      @.(   $.R $ * &.2 a &.= * $.s @ @   4 &.v % l &.+   c &.O ",
"  =.y $.{ i ^ @.$ C @.;.I &.F D &.L i =.i e &.^ i T @.*.K @.^ e ",
"  i e o.{ q 7 O.< @.~ 8 n &.1 1 &.I t q 8 w $.U q 9 } @.h &.5 8 ",
"  i 0 @.( 0 $ @.) &.Z 8 l $.r , &.' q 8 % j $.D $ q z &.o.$.8 % ",
"o     @.( $   B @.$.o   k @.= o N &.B ; d O.]     . o O.&.x $   ",
"%   i @.{ % t H $.| ;.i l $.J =.-.W &.&.%. .G t 0 o t | &.A t t ",
"%   i t q   i 8 q 9 8 q   i q q 8 q o J q q q 9 q . i q q 8 8 q ",
"%   i q 8   i q 9 q q q   i q 9 q 8   i q 8 q % 9 % t q 8 q 8 8 ",
"    %                           %   %             %           % ",
"  =.;.;.=.t =.i i t   t i i ;.t   t ;.=.;.t t % t i i ;.i i t t ",
"  i t q 8 8 q q 8 q   i q 8 q 8   i q 8 q q 8 % ;.q 8 q q 8 8 q ",
"  i t 8 q q 8 8 q q % t q q 8 q   i q % 8 q q   =.q 8 q 8 q q 8 ",
"            % %       %         %     % %     %         %   %   ",
"%   i =.i t % t ;.i ;.i t   i ;.t i t % t i ;.i t i i t % t i i ",
"%   ;.t q 8   =.q q q q 8   i q q q 8   i q q q 8 q % 8 % i q 8 ",
"%   i t 8 %   i q 8 % 8 %   t q 8 % 8   t q 8 % 8 8 8 %   t 8 % ",
"          %     %   %           %     % %         %         %   ",
"  i ;.i   t i =.;.t   t i ;.=.t   t i ;.=.i t i t   t i i t t t ",
"  ;.t 8   ;.8 q q 8   i q 8 q 8 % i q 8 8 8 q q 8 % i q 8 % 8 q ",
"  i q %   i q 8 % %   i 8 % 8 %   t q 8 % 8 q 8 %   i 8 % 8 q 8 ",
"          % %       %     %   % %     %         % %             ",
"  % =.;.i t   =.i ;.;.t t   i ;.t ;.q % ;.;.i t   i i ;.;.i t q ",
"  % i 8 8 %   i 8 q 8 q 8   i q 8 8 %   i q 8 8   i q 8 8 8 q 8 ",
"  % 8 % % %   t % % % % %   8 % % % %   q % % %   q % % % % % % "
};
