/* XPM */
static char *bnQ_[] = {
/* columns rows colors chars-per-pixel */
"32 32 64 1 ",
"  c #101010",
". c #111A1A",
"X c #111D1D",
"o c #122C2C",
"O c #202020",
"+ c #202525",
"@ c gray19",
"# c #3E4646",
"$ c #3D4C4C",
"% c #176767",
"& c #197A7A",
"* c #197C7C",
"= c #2A7878",
"- c #2B7B7B",
"; c gray25",
": c #4F5454",
"> c #505050",
", c #505151",
"< c #4A6666",
"1 c #5D6666",
"2 c #606060",
"3 c #6D7676",
"4 c gray44",
"5 c #1A8C8C",
"6 c #2A8282",
"7 c #399E9E",
"8 c #1CA7A7",
"9 c #1DACAC",
"0 c #1EBEBE",
"q c #37A4A4",
"w c #2BB6B6",
"e c #3AB3B3",
"r c #30BBBB",
"t c #658282",
"y c #7C8585",
"u c #6B9898",
"i c #51A2A2",
"p c #54B2B2",
"a c #5BBCBC",
"s c #2DC3C3",
"d c #20C9C9",
"f c #25CECE",
"g c #3BC4C4",
"h c #31C9C9",
"j c #23D2D2",
"k c #20D8D8",
"l c #20DADA",
"z c #23DBDB",
"x c #24DADA",
"c c #23DDDD",
"v c #25DDDD",
"b c #33D0D0",
"n c #35D5D5",
"m c #34DDDD",
"M c #27E2E2",
"N c #22E5E5",
"B c #2AE4E4",
"V c #23E9E9",
"C c #22EBEB",
"Z c #24E8E8",
"A c #808080",
"S c #8C9393",
"D c #8B9494",
"F c #909090",
/* pixels */
"           @     @              ",
" 4FAF 4FA44 FA4FA F4A4F F444AA44",
" A22>@4222@ te2>; 42;>; 422>>;>@",
" A2>@@42;@;@Bv;;@@4>@;@ 4>>;;@>@",
"    @ @     cv    @ @  O@       ",
"@ DMabVVhXSnVCBuiM%FA242@2FA2 24",
"@ DCVVsvV94qVVe<7Z*4>>;> 4>;; 4>",
"@ yCV$>#Nc2#vc;;>$+4;;>;O4;>; 2@",
"  .C0  @jZ @ll X  OO O O@     @ ",
" A3Cg432fZ4FBB4,@24A42 24FAFA242",
" 41Cr>;@dN2;vv@@ 42>;> 4>;>;>>@;",
" 41Cw>@;dZ>;xZ>; 2>;@@ 2;>;>;@;@",
"  .C8@  fN  jV5o-c=           @ ",
"@ 3Cg@24mZF46VCpaC&SAF422 244222",
"@ 42> 4;>;;> 3:>;> 3>>>;> 4>>;;>",
"@ 4>; 4>;>>> 3:;>; 4>;>@;@2>;>;;",
"  @             @ @      @     @",
" AFFA2A442 244F2 2FAF22@244F4422",
" 42>;;>>;> 4>;>; 4>;>>;@F>;>>;;>",
" 42;>>;;>>@2>>;> 4>@;>> A>;>;>>;",
"      @@   @    @  @@  @    @ @ ",
"@ 4A42@2F4F42 4F242@24F42442@244",
"@ F2>; A>>>>; 4>>>; 4>>>;>@;@4>;",
"@ 42;@ 4>;@;@ 2>;@; 2>;@;;;@ 2;@",
"     @  @ @     @  @@    @    @ ",
" 4F4 24AF2 24FA2 24FA4242 244222",
" F2; F;>>; 4>;>;@4>;;;>>;@4>;@;>",
" 4>@ 4>;@@ 4;@;@ 2>;@;>;@ 4;@;>;",
"     @@   @  @ @@  @    @@      ",
" @AF42 A4FF22 4F2F>@FF42 44FF42>",
" @4;;@ 4;>;>; 4>;;@ 4>;; 4>;;;>;",
" @;@@@ 2@@@@@ ;@@@@ >@@@ >@@@@@@"
};
