/* XPM */
static char *result[] = {
/* columns rows colors chars-per-pixel */
"32 32 234 2 ",
"   c black",
".  c #010101",
"X  c #000202",
"o  c #020202",
"O  c gray1",
"+  c #000707",
"@  c #040404",
"#  c gray2",
"$  c #060606",
"%  c #070606",
"&  c #070707",
"*  c #080606",
"=  c #090707",
"-  c #000B0B",
";  c #000C0C",
":  c #000E0E",
">  c #000F0F",
",  c gray3",
"<  c #0B0909",
"1  c gray4",
"2  c #0C0C0C",
"3  c gray5",
"4  c #0E0D0D",
"5  c gray6",
"6  c #001010",
"7  c #001111",
"8  c #001212",
"9  c #001313",
"0  c #001414",
"q  c #001515",
"w  c #001616",
"e  c #001717",
"r  c #0C1010",
"t  c #0F1111",
"y  c #0F1212",
"u  c #001818",
"i  c #001919",
"p  c #001A1A",
"a  c #001D1D",
"s  c #001F1F",
"d  c #101010",
"f  c #111111",
"g  c gray7",
"h  c #131313",
"j  c gray8",
"k  c #191714",
"l  c #1E1C19",
"z  c #002900",
"x  c #24211D",
"c  c #24211E",
"v  c #002020",
"b  c #002121",
"n  c #012121",
"m  c #002222",
"M  c #002525",
"N  c #002626",
"B  c #002828",
"V  c #002929",
"C  c #002A2A",
"Z  c #002F2F",
"A  c #003030",
"S  c #272420",
"D  c #2B2723",
"F  c #2A2824",
"G  c #2D2A26",
"H  c #2E2A26",
"J  c #302C28",
"K  c #312D29",
"L  c #342F2B",
"P  c #35312C",
"I  c #36322D",
"U  c #37332E",
"Y  c #38342F",
"T  c #39342F",
"R  c #353535",
"E  c #3A3530",
"W  c #3B3732",
"Q  c #3C3832",
"!  c #3D3833",
"~  c #3D3933",
"^  c #3C3834",
"/  c #3E3934",
"(  c #3E3A34",
")  c #3E3A35",
"_  c #3F3A35",
"`  c #3F3B35",
"'  c #403C36",
"]  c #413C37",
"[  c #413D37",
"{  c #403D39",
"}  c #423D38",
"|  c #433E38",
" . c #423E39",
".. c #433E39",
"X. c #433F39",
"o. c #443F39",
"O. c #443F3A",
"+. c #004200",
"@. c #004300",
"#. c #005101",
"$. c #005201",
"%. c #005902",
"&. c #005A02",
"*. c #005E02",
"=. c #005F02",
"-. c #006002",
";. c #006102",
":. c #45413B",
">. c #46413B",
",. c #47423C",
"<. c #48433D",
"1. c #49443E",
"2. c #49443F",
"3. c #4B463F",
"4. c gray25",
"5. c #4B4640",
"6. c #4C4740",
"7. c #4C4741",
"8. c #4D4842",
"9. c #4D4943",
"0. c #4E4842",
"q. c #4E4942",
"w. c #4E4943",
"e. c #4F4A43",
"r. c #4F4A44",
"t. c #494949",
"y. c #504A44",
"u. c #504B44",
"i. c #504B45",
"p. c #514B45",
"a. c #514C45",
"s. c #524C46",
"d. c #524D46",
"f. c #524D47",
"g. c #534D47",
"h. c #534E47",
"j. c #544F48",
"k. c #554F49",
"l. c #505050",
"z. c #606060",
"x. c gray39",
"c. c gray40",
"v. c gray42",
"b. c #6D6D6D",
"n. c gray44",
"m. c #767676",
"M. c #777777",
"N. c #7E7E7E",
"B. c #925E1F",
"V. c #986321",
"C. c #9E6823",
"Z. c #AA752A",
"A. c #AB762A",
"S. c #AC762B",
"D. c #AC772B",
"F. c #B07C2E",
"G. c #9B7541",
"H. c #B48030",
"J. c #B68231",
"K. c #B98533",
"L. c #BB8835",
"P. c #BC8935",
"I. c #BE8B37",
"U. c #B0843F",
"Y. c #A78246",
"T. c #83817F",
"R. c #00E0E0",
"E. c cyan",
"W. c #808080",
"Q. c #848484",
"!. c #878786",
"~. c #898784",
"^. c #8C8987",
"/. c #8E8B87",
"(. c #8B8B8B",
"). c #8F8C88",
"_. c #8F8C89",
"`. c #8D8D8D",
"'. c #8E8E8E",
"]. c gray56",
"[. c #98958E",
"{. c #98948F",
"}. c #909090",
"|. c gray57",
" X c #929292",
".X c gray58",
"XX c #959595",
"oX c gray59",
"OX c #9A9A9A",
"+X c #9B9A9A",
"@X c #9B9B9B",
"#X c #9D9D9D",
"$X c #9F9F9F",
"%X c #AC8888",
"&X c #A59F98",
"*X c #A0A0A0",
"=X c #A2A2A2",
"-X c #A4A4A4",
";X c #A5A5A5",
":X c gray65",
">X c #A7A7A7",
",X c gray66",
"<X c gray68",
"1X c #AEAEAE",
"2X c gray69",
"3X c #B2B2B2",
"4X c gray70",
"5X c #B4B4B4",
"6X c gray71",
"7X c #B6B6B6",
"8X c #B7B7B7",
"9X c gray73",
"0X c #BCBCBC",
"qX c #CD9E9E",
"wX c #D5A1A1",
"eX c #DAABAB",
"rX c #EAADAD",
"tX c #E9B1B1",
"yX c #80FFFF",
"uX c #C0C0C0",
"iX c #C1C1C1",
"pX c #C3C3C3",
"aX c gray77",
"sX c #C6C6C6",
"dX c gray78",
"fX c #C8C8C8",
"gX c #CACACA",
"hX c #CBCBCB",
"jX c #CDCDCD",
"kX c #CECECE",
"lX c gray81",
"zX c #D2D2D2",
"xX c #C0FFFF",
"cX c white",
/* pixels */
"d d d d d d d d d d 3 1 d d d d d t y d d 3 f r d d d d d d d d ",
"d v A A A A A A A , 3X;X# B C Z M p C V ; |.}.o N C A A v v v v ",
"d A v v u u v u v = %XM.2 i i s e a M q   b.eX% v 9 7 u u u u 6 ",
"d A v u v u 6 u u * wXXX1 e e B u u m u . ].rX4 v 6 u v u u u 6 ",
"d A v v v v u v u , qXaXt.$   . # $ o o   `.tX< u u 6 u v u 6 6 ",
"d A u v u u v v u $ $Xx.jXuX8X8X@Xh   . *Xc.o . v v 6 6 u 6 u 6 ",
"d A u u v u v u u u + ;Xv.sX1 oX# @ . *X XfX. u v v v u u u 6 u ",
"d A u v u v u v u u > O (..   o , lX1X,XQ.  u u u u u v v u u 6 ",
"d A u v v v u u v b 8 . h O   f -XjX1X,XXX@ 6 e u v u u u 6 6 u ",
"d A v v u u u u 6 9 : o o >Xd *X*XhX0X4X2X@ u u 6 u u u 6 u u 6 ",
"d A v u u v u u u e 6   7X:X6XsX9X'.=X<X].@ 0 w u v 6 u u u 6 6 ",
"d v u u u u 6 u u 6 u   pX9XkX  o & 6X].#X  6 6 6 a u 6 u 6 u 6 ",
"d v u v u u u u u u 6     *XN.!.+Xm.0XzX    6 8 p a 6 u 6 u 6 6 ",
"d v u u 6 u 6 u 6       o.' Y J H J L 2.P     v 6 u 6 6 6 6 u 6 ",
"d v u u u 6 u u # '.5X7.p.a.d.a.cXp.y...q. .(.    6 u 6 6 u 6 6 ",
"d v 6 6 6 u     OXOXY.d.p.[ j.k.j.j.d._ i.9.G.dX      u 6 6 6 6 ",
"d v v v v   *X    F.I.P.1.[ h.j.cXj.h./ q.L.U.gX  *XuX    v v v ",
"d v A     2X*X  7.h.d.J.D.X.d.h.g.h.s.W H.K.p.>.  n.W.*X*X  v v ",
"d A   *X2XuXn.  d.d.u.I I ,.f.h.cXh.d.| C.5.p.i.  E.n.W.*X}.  6 ",
"d   uXW.n.n.E.    e.0.} [ 5.g.i.q.a.g.<.[ <.r.w.  cXE.n.n.*X}.  ",
"d   W.*XE.E.cX  [._.} K | a.w.} -.>.u.u.Q [ ]     cXcXE.R.*XuX  ",
"d   *XuXR.E.yX  ^.T.&X# 3.6._ *.@.$.O.8.:.# {.~.  cXxXcXE.uX}.  ",
"d   W.*XR.yXcXcX5 ).R F X.E ;.&.z #.G ` ] j /.g cXcXyXcXR.}.*X  ",
"d   *XW.E.E.cXyXcX      d >X=.%.  $.%.+.      cXyXcXcXcXE.}.*X  ",
"d   z.*X*XyXE.cXcXcXyX  .XW.fXo.x 1X:XiX  cXyXcXcXcXyXyXW.*Xl.  ",
"d   }.W.*XW.*XE.R.E.R.cX# 5X .~   { dX^   cXyXyXyXyX}.2X*X4.l.  ",
"d   z.W.z.uX*X2XuXW.W.E.  ` ) T   U ( !   yXW.*XuXuX*X}.l.4.4.  ",
"d v   }.}.W.z.*XW.2X*XW.  S J c   l D k   2XuXW.*X}.4.z.l.4.  6 ",
"d v u   z.W.}.n.z.W.z.  S.Z.D.    Z.Z.A.  *Xz.W.l.z.l.4.4.  6 6 ",
"d v u u     z.W.l.z.n.  B.B.B.    B.B.V.  l.W.4.l.4.      6 u 6 ",
"d v u u u 6           n.      z.l.      l.4.        u 6 6 u 6 6 ",
"d v 6 6 6 u 6 6 u 6 6             - n X     6 6 u 6 6 u 6 6 6 6 "
};
